<svg width="24" height="24" viewBox="0 0 24 24" fill="none" xmlns="http://www.w3.org/2000/svg">
<g clip-path="url(#clip0_3_4)">
<path d="M2.75702 12H25.243" stroke="white" stroke-width="3" stroke-linecap="round" stroke-linejoin="round"/>
<mask id="path-2-inside-1_3_4" fill="white">
<path d="M12.743 1L1.09998 11.249C0.993569 11.3428 0.908349 11.4583 0.849976 11.5876C0.791603 11.7169 0.761414 11.8571 0.761414 11.999C0.761414 12.1409 0.791603 12.2811 0.849976 12.4104C0.908349 12.5397 0.993569 12.6552 1.09998 12.749L12.743 23"/>
</mask>
<path d="M14.7252 3.25184C15.9689 2.15708 16.0896 0.261428 14.9948 -0.982228C13.9001 -2.22588 12.0044 -2.34659 10.7607 -1.25184L14.7252 3.25184ZM1.09998 11.249L-0.882253 8.99716L-0.884338 8.999L1.09998 11.249ZM0.761414 11.999H-2.23859H0.761414ZM1.09998 12.749L-0.884338 14.999L-0.88247 15.0006L1.09998 12.749ZM10.7605 25.2516C12.0041 26.3465 13.8997 26.226 14.9946 24.9824C16.0895 23.7389 15.969 21.8432 14.7254 20.7484L10.7605 25.2516ZM10.7607 -1.25184L-0.882252 8.99716L3.0822 13.5008L14.7252 3.25184L10.7607 -1.25184ZM-0.884338 8.999C-1.30997 9.37437 -1.65085 9.83601 -1.88434 10.3532L3.58429 12.8219C3.46755 13.0805 3.29711 13.3113 3.08429 13.499L-0.884338 8.999ZM-1.88434 10.3532C-2.11783 10.8705 -2.23859 11.4315 -2.23859 11.999H3.76141C3.76141 12.2828 3.70103 12.5633 3.58429 12.8219L-1.88434 10.3532ZM-2.23859 11.999C-2.23859 12.5665 -2.11783 13.1275 -1.88434 13.6448L3.58429 11.1761C3.70104 11.4347 3.76141 11.7152 3.76141 11.999H-2.23859ZM-1.88434 13.6448C-1.65085 14.162 -1.30996 14.6236 -0.884338 14.999L3.08429 10.499C3.2971 10.6867 3.46754 10.9175 3.58429 11.1761L-1.88434 13.6448ZM-0.88247 15.0006L10.7605 25.2516L14.7254 20.7484L3.08242 10.4974L-0.88247 15.0006Z" fill="white" mask="url(#path-2-inside-1_3_4)"/>
</g>
<defs>
<clipPath id="clip0_3_4">
<rect width="24" height="24" fill="white"/>
</clipPath>
</defs>
</svg>
