<svg width="19" height="18" viewBox="0 0 19 18" fill="none" xmlns="http://www.w3.org/2000/svg">
<path d="M6.95406 1.50409C7.07836 2.23256 6.68545 2.71862 6.31899 2.78115C5.95253 2.84369 5.42067 2.51543 5.29636 1.78696C5.17206 1.05849 5.56496 0.57243 5.93142 0.509897C6.29789 0.447364 6.82975 0.775625 6.95406 1.50409Z" stroke="white"/>
<path d="M3.54643 2.14895C3.86104 2.8177 3.6124 3.39118 3.27598 3.54944C2.93955 3.70771 2.33923 3.53362 2.02462 2.86487C1.71001 2.19612 1.95865 1.62263 2.29508 1.46437C2.6315 1.3061 3.23183 1.4802 3.54643 2.14895Z" stroke="white"/>
<path d="M1.83836 5.03132C2.24275 5.52022 2.14366 6.02878 1.92207 6.21207C1.70047 6.39536 1.18235 6.39733 0.777958 5.90843C0.37357 5.41954 0.472658 4.91098 0.694254 4.72768C0.91585 4.54439 1.43397 4.54243 1.83836 5.03132Z" stroke="white"/>
<path d="M9.25215 2.44085C9.52875 2.5195 9.82406 2.94521 9.65055 3.55548C9.47703 4.16575 9.00191 4.3724 8.72531 4.29375C8.44871 4.2151 8.15339 3.78939 8.32691 3.17912C8.50043 2.56886 8.97555 2.3622 9.25215 2.44085Z" stroke="white"/>
<path d="M3.43028 8.27044L3.43029 8.27043L3.42913 8.26795C3.33285 8.06016 3.32638 7.8511 3.37007 7.42762C3.45088 6.66285 3.48274 6.37148 3.58231 6.10741L3.58231 6.10741L3.58291 6.1058C3.72418 5.72721 4.03324 4.92604 4.83459 4.56148C5.45204 4.28287 6.04585 4.40376 6.27362 4.45493C6.90122 4.59719 7.25005 4.93462 8.12629 5.83083L8.12653 5.83107C8.49393 6.20635 8.59986 6.39215 8.65102 6.59789C8.68459 6.73506 8.75716 7.04893 8.59673 7.33771L8.59552 7.33991C8.50522 7.50437 8.37711 7.59135 8.24446 7.67799C8.1529 7.73747 7.85555 7.9215 7.47033 7.90832C7.2679 7.8996 7.14084 7.84851 6.97748 7.78282L6.97178 7.78053C6.96769 7.77889 6.96354 7.77722 6.95933 7.77552C6.79001 7.7073 6.51746 7.5975 6.16709 7.67934L6.16709 7.67932L6.16389 7.68009C5.93064 7.73619 5.75645 7.87435 5.64922 7.97357C5.57109 8.04587 5.47871 8.14898 5.43872 8.19362C5.43224 8.20085 5.42714 8.20654 5.4237 8.21032C5.40583 8.22787 5.39078 8.24107 5.37802 8.25089L5.37801 8.25088L5.37471 8.25345C5.12585 8.44822 4.96666 8.56184 4.87369 8.62464C4.82734 8.65595 4.79824 8.67409 4.7834 8.68303L4.77705 8.68676C4.44472 8.84338 4.07779 8.75051 3.98674 8.72233L3.97948 8.72008L3.97216 8.71806C3.86971 8.68972 3.72959 8.64315 3.60132 8.51907C3.5749 8.49261 3.49409 8.41012 3.43028 8.27044Z" stroke="white"/>
<path d="M16.9573 10.099C17.2855 10.2737 17.5055 10.8587 17.1582 11.5111C16.8109 12.1634 16.2027 12.3076 15.8746 12.1329C15.5464 11.9582 15.3264 11.3732 15.6737 10.7208C16.021 10.0685 16.6291 9.9243 16.9573 10.099Z" stroke="white"/>
<path d="M13.4972 8.62816C13.8601 8.70873 14.2286 9.21362 14.0684 9.93507C13.9083 10.6565 13.3608 10.9581 12.9979 10.8775C12.635 10.797 12.2665 10.2921 12.4267 9.57063C12.5868 8.84919 13.1343 8.5476 13.4972 8.62816Z" stroke="white"/>
<path d="M10.9542 11.1715C10.975 11.8056 10.5855 12.1473 10.2981 12.1567C10.0107 12.1662 9.59964 11.8508 9.5788 11.2167C9.55796 10.5826 9.94744 10.2409 10.2349 10.2314C10.5223 10.222 10.9333 10.5374 10.9542 11.1715Z" stroke="white"/>
<path d="M18.4011 13.6564C18.5718 13.8878 18.545 14.4052 18.0345 14.7818C17.5239 15.1584 17.0217 15.0312 16.851 14.7998C16.6803 14.5684 16.7071 14.051 17.2176 13.6744C17.7282 13.2978 18.2304 13.425 18.4011 13.6564Z" stroke="white"/>
<path d="M10.2154 15.0101L10.2153 15.0101C10.2397 15.1873 10.3201 15.3071 10.3906 15.4079L10.3917 15.4094L10.3917 15.4094C10.4442 15.485 10.6764 15.7825 11.0349 15.8628L11.042 15.8637C11.0599 15.8657 11.0947 15.8692 11.1511 15.8727C11.2641 15.8798 11.4603 15.8873 11.7757 15.886L11.7778 15.886C11.7989 15.886 11.82 15.8848 11.8414 15.8824C11.8439 15.8819 11.8476 15.8813 11.8522 15.8804C11.9006 15.8715 12.0564 15.8428 12.1615 15.8332C12.3066 15.8199 12.5318 15.8161 12.7529 15.9173C13.0804 16.0661 13.2289 16.3204 13.3207 16.4773C13.3231 16.4815 13.3255 16.4856 13.3279 16.4896L13.3303 16.4939C13.4197 16.6465 13.4888 16.7645 13.6445 16.8947L13.6455 16.8956C13.9399 17.1432 14.2886 17.1788 14.3989 17.1882L10.2154 15.0101ZM10.2154 15.0101L10.2145 15.0041C10.2116 14.9848 10.1957 14.8672 10.232 14.7112L10.232 14.7112L10.2326 14.7088C10.2832 14.486 10.4063 14.3157 10.6981 14.0103L10.6984 14.0099C11.2279 13.4545 11.4341 13.2423 11.6757 13.0921L11.6757 13.0922L11.6777 13.0909C12.0161 12.8783 12.756 12.4343 13.6098 12.6372C14.2688 12.7943 14.6628 13.2529 14.8121 13.4331M10.2154 15.0101L14.8121 13.4331M14.8121 13.4331C15.2208 13.9295 15.2916 14.4119 15.4341 15.6552L15.4342 15.6556C15.4945 16.177 15.4645 16.3885 15.378 16.5875C15.3251 16.7091 15.187 17.0051 14.8839 17.1355C14.7092 17.2106 14.5543 17.2014 14.3991 17.1883L14.8121 13.4331Z" stroke="white"/>
</svg>
