<svg width="28" height="28" viewBox="0 0 28 28" fill="none" xmlns="http://www.w3.org/2000/svg">
<path d="M25 0H3C1.34314 0 0 1.34315 0 3.00002V19.0002C0 20.657 1.34314 22.0002 3 22.0002H6.55001L6.00603 26.8902C5.94539 27.4392 6.34125 27.9333 6.89021 27.994C7.17369 28.0252 7.45705 27.934 7.66904 27.7432L14.051 22.0002H25C26.6569 22.0002 28 20.657 28 19.0002V3.00002C28 1.34315 26.6569 0 25 0ZM26 19.0002C26 19.5525 25.5522 20.0002 24.9999 20.0002H13.667C13.4199 20.0002 13.1816 20.0918 12.998 20.2572L8.28398 24.5002L8.66097 21.1112C8.72226 20.5623 8.32704 20.0677 7.77814 20.0063C7.74122 20.0022 7.70414 20.0001 7.66699 20.0002H3C2.44769 20.0002 1.99998 19.5525 1.99998 19.0002V3.00002C1.99998 2.44771 2.44769 2 3 2H25C25.5523 2 26 2.44771 26 3.00002V19.0002H26Z" fill="black"/>
</svg>
