<svg width="21" height="22" viewBox="0 0 21 22" fill="none" xmlns="http://www.w3.org/2000/svg">
<path d="M7.15903 11.7175C7.15768 11.7156 7.15573 11.7128 7.15362 11.7097L0.459231 2.04944C0.459079 2.04922 0.458928 2.04901 0.458777 2.04879C0.215359 1.70148 0.182311 1.24504 0.372711 0.865542L7.15903 11.7175ZM7.15903 11.7175L7.15897 11.7175L7.16409 11.7246C7.37628 12.018 7.49153 12.3742 7.49229 12.7412M7.15903 11.7175L7.49229 12.7412M7.49229 12.7412C7.49229 12.7413 7.49229 12.7413 7.49229 12.7414L7.49229 20.618V20.6187H7.74229C7.74086 20.8521 7.83029 21.0761 7.99086 21.2416C8.15143 21.4071 8.36972 21.5 8.59737 21.5C8.71322 21.5 8.82765 21.4763 8.93456 21.4309M7.49229 12.7412L12.7806 20.197M8.93456 21.4309L9.02552 21.6637L9.02871 21.6625C9.02989 21.662 9.03108 21.6615 9.03226 21.661L8.93456 21.4309ZM8.93456 21.4309L12.6971 19.9611M12.6971 19.9611L12.7717 20.1998C12.7747 20.1988 12.7776 20.1979 12.7806 20.197M12.6971 19.9611C13.0343 19.8558 13.2581 19.5299 13.2581 19.1375V12.7409M12.6971 19.9611L12.7881 20.194L12.7806 20.197M12.7806 20.197L13.2581 12.7409M19.6382 0.250002C20.0577 0.249289 20.4385 0.489237 20.6273 0.865541L19.6382 0.250002ZM19.6382 0.250002H19.6384V0.5L19.6379 0.250002C19.638 0.250002 19.6381 0.250002 19.6382 0.250002ZM19.6382 0.250002H1.36164M19.6382 0.250002H1.36164M13.2581 12.7409C13.2587 12.3222 13.3904 11.9146 13.6335 11.5781L13.6404 11.5683L13.2581 12.7409ZM1.36164 0.250002C0.942291 0.249289 0.561466 0.489255 0.372726 0.865513L1.36164 0.250002ZM8.40952 10.8024L2.18212 1.81602H18.8179L12.5903 10.8024C12.1863 11.3648 11.9684 12.0436 11.9671 12.7405V12.7409V18.8372L9.03293 19.9832V12.7409V12.7405C9.03162 12.0436 8.81368 11.3647 8.40952 10.8024Z" fill="black" stroke="black" stroke-width="0.5"/>
</svg>
