<svg width="16" height="16" viewBox="0 0 16 16" fill="none" xmlns="http://www.w3.org/2000/svg">
<g clip-path="url(#clip0_1_370)">
<path d="M8 0.00116348C3.5888 0.00116348 0 3.58982 0 8.00073C0 12.4117 3.5888 16.0003 8 16.0003C12.4112 16.0003 16 12.4117 16 8.00073C16 3.58982 12.4112 0.00116348 8 0.00116348ZM8 14.5458C4.39084 14.5458 1.45455 11.6097 1.45455 8.00078C1.45455 4.39181 4.39084 1.45571 8 1.45571C11.6092 1.45571 14.5455 4.39181 14.5455 8.00073C14.5455 11.6098 11.6092 14.5458 8 14.5458Z" fill="#FFD474"/>
<path d="M7.99998 6.30343C7.59833 6.30343 7.27271 6.62905 7.27271 7.0307V11.8784C7.27271 12.28 7.59833 12.6056 7.99998 12.6056C8.40163 12.6056 8.72725 12.28 8.72725 11.8784V7.0307C8.72725 6.6291 8.40163 6.30343 7.99998 6.30343Z" fill="#FFD474"/>
<path d="M7.99998 3.39438C7.80846 3.39438 7.62126 3.47195 7.48555 3.60723C7.35028 3.7425 7.27271 3.93014 7.27271 4.12165C7.27271 4.31317 7.35028 4.50032 7.48555 4.63608C7.62083 4.77135 7.80846 4.84892 7.99998 4.84892C8.19149 4.84892 8.37864 4.77135 8.51435 4.63608C8.64962 4.50032 8.72725 4.31317 8.72725 4.12165C8.72725 3.93014 8.64962 3.7425 8.51435 3.60723C8.37864 3.47191 8.19149 3.39438 7.99998 3.39438Z" fill="#FFD474"/>
</g>
<defs>
<clipPath id="clip0_1_370">
<rect width="16" height="16" fill="white"/>
</clipPath>
</defs>
</svg>
