<svg width="20" height="20" viewBox="0 0 20 20" fill="none" xmlns="http://www.w3.org/2000/svg">
<g clip-path="url(#clip0_1_62)">
<path d="M9.99994 4.31206C6.86726 4.31206 4.31198 6.86734 4.31198 10C4.31198 13.1327 6.86726 15.688 9.99994 15.688C13.1326 15.688 15.6879 13.1327 15.6879 10C15.6879 6.86734 13.1326 4.31206 9.99994 4.31206ZM9.99994 14.6192C7.45694 14.6192 5.38078 12.543 5.38078 10C5.38078 7.45702 7.45694 5.38085 9.99994 5.38085C12.5429 5.38085 14.6191 7.45702 14.6191 10C14.6191 12.543 12.5552 14.6192 9.99994 14.6192Z" fill="white"/>
<path d="M4.81578 14.4349L2.92389 16.3268C2.71505 16.5356 2.71505 16.8673 2.92389 17.0762C3.02217 17.1745 3.16959 17.2359 3.30473 17.2359C3.43986 17.2359 3.575 17.1868 3.68556 17.0762L5.57745 15.1843C5.7863 14.9754 5.7863 14.6438 5.57745 14.4349C5.35632 14.2261 5.02463 14.2261 4.81578 14.4349Z" fill="white"/>
<path d="M14.8157 5.72481C14.9508 5.72481 15.0859 5.67567 15.1965 5.5651L17.0761 3.6855C17.285 3.47665 17.285 3.14496 17.0761 2.93611C16.8673 2.72727 16.5356 2.72727 16.3267 2.93611L14.4348 4.828C14.226 5.03685 14.226 5.36854 14.4348 5.57739C14.5331 5.67567 14.6805 5.72481 14.8157 5.72481Z" fill="white"/>
<path d="M3.73464 10C3.73464 9.70519 3.50123 9.47177 3.20639 9.47177H0.528255C0.233415 9.47177 0 9.70519 0 10C0 10.2949 0.233415 10.5283 0.528255 10.5283H3.1941C3.50123 10.5406 3.73464 10.2949 3.73464 10Z" fill="white"/>
<path d="M19.4717 9.47177H16.8059C16.511 9.47177 16.2776 9.70519 16.2776 10C16.2776 10.2949 16.511 10.5283 16.8059 10.5283H19.4717C19.7666 10.5283 20 10.2949 20 10C20 9.70519 19.7666 9.47177 19.4717 9.47177Z" fill="white"/>
<path d="M4.81572 5.56509C4.914 5.66337 5.06142 5.7248 5.19656 5.7248C5.33169 5.7248 5.46683 5.67566 5.57739 5.56509C5.78624 5.35625 5.78624 5.02455 5.57739 4.81571L3.6855 2.92382C3.47665 2.71497 3.14496 2.71497 2.93611 2.92382C2.72727 3.13266 2.72727 3.46436 2.93611 3.6732L4.81572 5.56509Z" fill="white"/>
<path d="M15.1842 14.4349C14.9754 14.2261 14.6437 14.2261 14.4348 14.4349C14.226 14.6438 14.226 14.9754 14.4348 15.1843L16.3267 17.0762C16.425 17.1745 16.5724 17.2359 16.7076 17.2359C16.8427 17.2359 16.9778 17.1868 17.0884 17.0762C17.2972 16.8673 17.2972 16.5356 17.0884 16.3268L15.1842 14.4349Z" fill="white"/>
<path d="M9.99993 3.73464C10.2948 3.73464 10.5282 3.50123 10.5282 3.20639V0.528255C10.5282 0.233415 10.2948 0 9.99993 0C9.70509 0 9.47168 0.233415 9.47168 0.528255V3.1941C9.47168 3.50123 9.70509 3.73464 9.99993 3.73464Z" fill="white"/>
<path d="M9.99994 16.2653C9.7051 16.2653 9.47168 16.4988 9.47168 16.7936V19.4594C9.47168 19.7543 9.7051 19.9877 9.99994 19.9877C10.2948 19.9877 10.5282 19.7543 10.5282 19.4594V16.7936C10.5405 16.511 10.2948 16.2653 9.99994 16.2653Z" fill="white"/>
</g>
<defs>
<clipPath id="clip0_1_62">
<rect width="20" height="20" fill="white"/>
</clipPath>
</defs>
</svg>
