<svg width="19" height="19" viewBox="0 0 19 19" fill="none" xmlns="http://www.w3.org/2000/svg">
<mask id="path-1-outside-1_1_133" maskUnits="userSpaceOnUse" x="-0.935929" y="-0.935924" width="20.7984" height="20.7984" fill="black">
<rect fill="white" x="-0.935929" y="-0.935924" width="20.7984" height="20.7984"/>
<path d="M18.3626 3.85521L16.4887 3.5429C16.1179 2.62363 15.2619 1.96015 14.2596 1.84879L13.5615 1.77124L12.4604 1.64891C12.4401 1.64663 12.4199 1.64553 12.3995 1.64553C11.4888 1.64553 10.7479 2.38646 10.7479 3.29717V4.7653C10.7479 4.9643 10.7833 5.15519 10.8481 5.33203C10.7351 5.60404 10.5687 5.84617 10.3627 6.04638L2.82648 0.219026C2.73003 0.144482 2.61159 0.103999 2.4897 0.103999H0.65454C0.350491 0.103999 0.103993 0.350497 0.103993 0.654546C0.103993 0.958594 0.350491 1.20509 0.65454 1.20509H2.30167L9.29314 6.61128C9.2408 6.62189 9.18783 6.63062 9.13432 6.6373L4.62644 7.20081C4.46319 7.22121 4.30371 7.25278 4.14871 7.29469L3.49455 6.91702C2.80219 6.51725 2.35812 5.80231 2.30662 5.00453C2.28163 4.61647 2.01039 4.29627 1.63176 4.20778C1.25313 4.1191 0.868042 4.28606 0.673625 4.62281C0.673075 4.62373 0.672524 4.62472 0.67201 4.62564C0.135521 5.55636 -0.0276248 6.64512 0.212671 7.6916C0.422392 8.60485 0.921775 9.41389 1.63426 10.0062C1.59359 10.2186 1.57212 10.4374 1.57212 10.6606V13.0139L0.224636 14.6983C0.146532 14.7959 0.103993 14.9172 0.103993 15.0422V18.3455C0.103993 18.6495 0.350491 18.896 0.65454 18.896H2.85673C3.16078 18.896 3.40727 18.6495 3.40727 18.3455V16.2076C4.70756 15.7889 5.60946 14.5804 5.60946 13.1767V12.9609L6.5295 13.3792C7.30206 13.7303 8.0983 13.9983 8.91274 14.1836V18.3455C8.91274 18.6495 9.15924 18.896 9.46329 18.896H11.6655H13.8677C14.1717 18.896 14.4182 18.6495 14.4182 18.3455V13.1906C15.5443 12.5922 16.2534 11.4281 16.2534 10.1294V7.151H16.8039C17.917 7.151 18.8226 6.24542 18.8226 5.13233V4.39827C18.8226 4.12912 18.628 3.89943 18.3626 3.85521ZM11.849 3.29717C11.849 3.00208 12.0824 2.76046 12.3743 2.74721L12.9501 2.81119V4.7653C12.9501 5.06887 12.7031 5.31584 12.3995 5.31584C12.096 5.31584 11.849 5.06887 11.849 4.7653V3.29717ZM1.3417 5.83461C1.59098 6.68509 2.15805 7.41677 2.94401 7.87057L2.95942 7.87948C2.59558 8.15494 2.28845 8.49922 2.05638 8.89194C1.29607 8.07629 1.02212 6.90102 1.3417 5.83461ZM10.0138 14.382C10.378 14.4305 10.745 14.4636 11.1149 14.4797V17.7949H10.0138V14.382ZM13.6632 12.3288C13.4542 12.4124 13.3171 12.6148 13.3171 12.84V17.7949H12.216V13.9411C12.216 13.8172 12.1746 13.7033 12.1056 13.6113L12.1059 13.6108L11.8857 13.3171C11.3887 12.6544 11.1149 11.8332 11.1149 11.0048C11.1149 10.7008 10.8684 10.4543 10.5644 10.4543C10.2603 10.4543 10.0138 10.7008 10.0138 11.0048C10.0138 11.8176 10.2193 12.6246 10.6004 13.3401C9.3516 13.2234 8.13948 12.9014 6.98517 12.3768L5.28677 11.6047C5.11632 11.5273 4.91823 11.5417 4.76089 11.6431C4.60347 11.7444 4.50837 11.9187 4.50837 12.1059V13.1767C4.50837 14.2001 3.7757 15.0649 2.76622 15.2332C2.50074 15.2774 2.30618 15.5071 2.30618 15.7762V17.7949H1.20509V15.2353L2.55257 13.5509C2.63067 13.4533 2.67321 13.332 2.67321 13.207V10.6606C2.67321 9.45996 3.57163 8.44229 4.76298 8.29335L9.27086 7.72985C9.63793 7.68397 9.98749 7.57613 10.3083 7.41691C11.6026 8.46809 13.2222 9.0375 14.8774 9.0375C14.9689 9.0375 15.0606 9.03516 15.1523 9.03163V10.1294C15.1523 11.1037 14.5678 11.967 13.6632 12.3288ZM17.7215 5.13233C17.7215 5.63828 17.3099 6.04991 16.8039 6.04991H15.7028C15.3988 6.04991 15.1523 6.2964 15.1523 6.60045V7.93021C13.7485 7.99341 12.3588 7.57077 11.2275 6.73633C11.3757 6.5795 11.5088 6.40773 11.6239 6.22293C11.8553 6.34658 12.1193 6.41694 12.3995 6.41694C13.3103 6.41694 14.0512 5.67601 14.0512 4.7653V2.93352L14.138 2.94317C14.81 3.01782 15.3717 3.50876 15.5358 4.1648C15.5889 4.37742 15.7631 4.53829 15.9793 4.57429L17.7215 4.86465V5.13233Z"/>
</mask>
<path d="M18.3626 3.85521L16.4887 3.5429C16.1179 2.62363 15.2619 1.96015 14.2596 1.84879L13.5615 1.77124L12.4604 1.64891C12.4401 1.64663 12.4199 1.64553 12.3995 1.64553C11.4888 1.64553 10.7479 2.38646 10.7479 3.29717V4.7653C10.7479 4.9643 10.7833 5.15519 10.8481 5.33203C10.7351 5.60404 10.5687 5.84617 10.3627 6.04638L2.82648 0.219026C2.73003 0.144482 2.61159 0.103999 2.4897 0.103999H0.65454C0.350491 0.103999 0.103993 0.350497 0.103993 0.654546C0.103993 0.958594 0.350491 1.20509 0.65454 1.20509H2.30167L9.29314 6.61128C9.2408 6.62189 9.18783 6.63062 9.13432 6.6373L4.62644 7.20081C4.46319 7.22121 4.30371 7.25278 4.14871 7.29469L3.49455 6.91702C2.80219 6.51725 2.35812 5.80231 2.30662 5.00453C2.28163 4.61647 2.01039 4.29627 1.63176 4.20778C1.25313 4.1191 0.868042 4.28606 0.673625 4.62281C0.673075 4.62373 0.672524 4.62472 0.67201 4.62564C0.135521 5.55636 -0.0276248 6.64512 0.212671 7.6916C0.422392 8.60485 0.921775 9.41389 1.63426 10.0062C1.59359 10.2186 1.57212 10.4374 1.57212 10.6606V13.0139L0.224636 14.6983C0.146532 14.7959 0.103993 14.9172 0.103993 15.0422V18.3455C0.103993 18.6495 0.350491 18.896 0.65454 18.896H2.85673C3.16078 18.896 3.40727 18.6495 3.40727 18.3455V16.2076C4.70756 15.7889 5.60946 14.5804 5.60946 13.1767V12.9609L6.5295 13.3792C7.30206 13.7303 8.0983 13.9983 8.91274 14.1836V18.3455C8.91274 18.6495 9.15924 18.896 9.46329 18.896H11.6655H13.8677C14.1717 18.896 14.4182 18.6495 14.4182 18.3455V13.1906C15.5443 12.5922 16.2534 11.4281 16.2534 10.1294V7.151H16.8039C17.917 7.151 18.8226 6.24542 18.8226 5.13233V4.39827C18.8226 4.12912 18.628 3.89943 18.3626 3.85521ZM11.849 3.29717C11.849 3.00208 12.0824 2.76046 12.3743 2.74721L12.9501 2.81119V4.7653C12.9501 5.06887 12.7031 5.31584 12.3995 5.31584C12.096 5.31584 11.849 5.06887 11.849 4.7653V3.29717ZM1.3417 5.83461C1.59098 6.68509 2.15805 7.41677 2.94401 7.87057L2.95942 7.87948C2.59558 8.15494 2.28845 8.49922 2.05638 8.89194C1.29607 8.07629 1.02212 6.90102 1.3417 5.83461ZM10.0138 14.382C10.378 14.4305 10.745 14.4636 11.1149 14.4797V17.7949H10.0138V14.382ZM13.6632 12.3288C13.4542 12.4124 13.3171 12.6148 13.3171 12.84V17.7949H12.216V13.9411C12.216 13.8172 12.1746 13.7033 12.1056 13.6113L12.1059 13.6108L11.8857 13.3171C11.3887 12.6544 11.1149 11.8332 11.1149 11.0048C11.1149 10.7008 10.8684 10.4543 10.5644 10.4543C10.2603 10.4543 10.0138 10.7008 10.0138 11.0048C10.0138 11.8176 10.2193 12.6246 10.6004 13.3401C9.3516 13.2234 8.13948 12.9014 6.98517 12.3768L5.28677 11.6047C5.11632 11.5273 4.91823 11.5417 4.76089 11.6431C4.60347 11.7444 4.50837 11.9187 4.50837 12.1059V13.1767C4.50837 14.2001 3.7757 15.0649 2.76622 15.2332C2.50074 15.2774 2.30618 15.5071 2.30618 15.7762V17.7949H1.20509V15.2353L2.55257 13.5509C2.63067 13.4533 2.67321 13.332 2.67321 13.207V10.6606C2.67321 9.45996 3.57163 8.44229 4.76298 8.29335L9.27086 7.72985C9.63793 7.68397 9.98749 7.57613 10.3083 7.41691C11.6026 8.46809 13.2222 9.0375 14.8774 9.0375C14.9689 9.0375 15.0606 9.03516 15.1523 9.03163V10.1294C15.1523 11.1037 14.5678 11.967 13.6632 12.3288ZM17.7215 5.13233C17.7215 5.63828 17.3099 6.04991 16.8039 6.04991H15.7028C15.3988 6.04991 15.1523 6.2964 15.1523 6.60045V7.93021C13.7485 7.99341 12.3588 7.57077 11.2275 6.73633C11.3757 6.5795 11.5088 6.40773 11.6239 6.22293C11.8553 6.34658 12.1193 6.41694 12.3995 6.41694C13.3103 6.41694 14.0512 5.67601 14.0512 4.7653V2.93352L14.138 2.94317C14.81 3.01782 15.3717 3.50876 15.5358 4.1648C15.5889 4.37742 15.7631 4.53829 15.9793 4.57429L17.7215 4.86465V5.13233Z" fill="#A0A0A0"/>
<path d="M18.3626 3.85521L16.4887 3.5429C16.1179 2.62363 15.2619 1.96015 14.2596 1.84879L13.5615 1.77124L12.4604 1.64891C12.4401 1.64663 12.4199 1.64553 12.3995 1.64553C11.4888 1.64553 10.7479 2.38646 10.7479 3.29717V4.7653C10.7479 4.9643 10.7833 5.15519 10.8481 5.33203C10.7351 5.60404 10.5687 5.84617 10.3627 6.04638L2.82648 0.219026C2.73003 0.144482 2.61159 0.103999 2.4897 0.103999H0.65454C0.350491 0.103999 0.103993 0.350497 0.103993 0.654546C0.103993 0.958594 0.350491 1.20509 0.65454 1.20509H2.30167L9.29314 6.61128C9.2408 6.62189 9.18783 6.63062 9.13432 6.6373L4.62644 7.20081C4.46319 7.22121 4.30371 7.25278 4.14871 7.29469L3.49455 6.91702C2.80219 6.51725 2.35812 5.80231 2.30662 5.00453C2.28163 4.61647 2.01039 4.29627 1.63176 4.20778C1.25313 4.1191 0.868042 4.28606 0.673625 4.62281C0.673075 4.62373 0.672524 4.62472 0.67201 4.62564C0.135521 5.55636 -0.0276248 6.64512 0.212671 7.6916C0.422392 8.60485 0.921775 9.41389 1.63426 10.0062C1.59359 10.2186 1.57212 10.4374 1.57212 10.6606V13.0139L0.224636 14.6983C0.146532 14.7959 0.103993 14.9172 0.103993 15.0422V18.3455C0.103993 18.6495 0.350491 18.896 0.65454 18.896H2.85673C3.16078 18.896 3.40727 18.6495 3.40727 18.3455V16.2076C4.70756 15.7889 5.60946 14.5804 5.60946 13.1767V12.9609L6.5295 13.3792C7.30206 13.7303 8.0983 13.9983 8.91274 14.1836V18.3455C8.91274 18.6495 9.15924 18.896 9.46329 18.896H11.6655H13.8677C14.1717 18.896 14.4182 18.6495 14.4182 18.3455V13.1906C15.5443 12.5922 16.2534 11.4281 16.2534 10.1294V7.151H16.8039C17.917 7.151 18.8226 6.24542 18.8226 5.13233V4.39827C18.8226 4.12912 18.628 3.89943 18.3626 3.85521ZM11.849 3.29717C11.849 3.00208 12.0824 2.76046 12.3743 2.74721L12.9501 2.81119V4.7653C12.9501 5.06887 12.7031 5.31584 12.3995 5.31584C12.096 5.31584 11.849 5.06887 11.849 4.7653V3.29717ZM1.3417 5.83461C1.59098 6.68509 2.15805 7.41677 2.94401 7.87057L2.95942 7.87948C2.59558 8.15494 2.28845 8.49922 2.05638 8.89194C1.29607 8.07629 1.02212 6.90102 1.3417 5.83461ZM10.0138 14.382C10.378 14.4305 10.745 14.4636 11.1149 14.4797V17.7949H10.0138V14.382ZM13.6632 12.3288C13.4542 12.4124 13.3171 12.6148 13.3171 12.84V17.7949H12.216V13.9411C12.216 13.8172 12.1746 13.7033 12.1056 13.6113L12.1059 13.6108L11.8857 13.3171C11.3887 12.6544 11.1149 11.8332 11.1149 11.0048C11.1149 10.7008 10.8684 10.4543 10.5644 10.4543C10.2603 10.4543 10.0138 10.7008 10.0138 11.0048C10.0138 11.8176 10.2193 12.6246 10.6004 13.3401C9.3516 13.2234 8.13948 12.9014 6.98517 12.3768L5.28677 11.6047C5.11632 11.5273 4.91823 11.5417 4.76089 11.6431C4.60347 11.7444 4.50837 11.9187 4.50837 12.1059V13.1767C4.50837 14.2001 3.7757 15.0649 2.76622 15.2332C2.50074 15.2774 2.30618 15.5071 2.30618 15.7762V17.7949H1.20509V15.2353L2.55257 13.5509C2.63067 13.4533 2.67321 13.332 2.67321 13.207V10.6606C2.67321 9.45996 3.57163 8.44229 4.76298 8.29335L9.27086 7.72985C9.63793 7.68397 9.98749 7.57613 10.3083 7.41691C11.6026 8.46809 13.2222 9.0375 14.8774 9.0375C14.9689 9.0375 15.0606 9.03516 15.1523 9.03163V10.1294C15.1523 11.1037 14.5678 11.967 13.6632 12.3288ZM17.7215 5.13233C17.7215 5.63828 17.3099 6.04991 16.8039 6.04991H15.7028C15.3988 6.04991 15.1523 6.2964 15.1523 6.60045V7.93021C13.7485 7.99341 12.3588 7.57077 11.2275 6.73633C11.3757 6.5795 11.5088 6.40773 11.6239 6.22293C11.8553 6.34658 12.1193 6.41694 12.3995 6.41694C13.3103 6.41694 14.0512 5.67601 14.0512 4.7653V2.93352L14.138 2.94317C14.81 3.01782 15.3717 3.50876 15.5358 4.1648C15.5889 4.37742 15.7631 4.53829 15.9793 4.57429L17.7215 4.86465V5.13233Z" stroke="#A0A0A0" stroke-width="0.2" mask="url(#path-1-outside-1_1_133)"/>
</svg>
