<svg width="15" height="14" viewBox="0 0 15 14" fill="none" xmlns="http://www.w3.org/2000/svg">
<path d="M5.51594 1.17437C5.61502 1.75079 5.30314 2.15023 4.99264 2.20283C4.68214 2.25543 4.25446 1.98126 4.15538 1.40484C4.05629 0.82842 4.36818 0.428975 4.67868 0.376378C4.98918 0.323781 5.41686 0.597949 5.51594 1.17437Z" stroke="black" stroke-width="0.7"/>
<path d="M2.82325 1.67327C3.07445 2.20333 2.88075 2.67079 2.59659 2.80349C2.31243 2.93619 1.82616 2.78628 1.57496 2.25622C1.32376 1.72616 1.51747 1.2587 1.80163 1.126C2.08578 0.993301 2.57206 1.14321 2.82325 1.67327Z" stroke="black" stroke-width="0.7"/>
<path d="M1.47082 3.92731C1.79523 4.31664 1.72283 4.7319 1.53321 4.88759C1.34359 5.04328 0.919113 5.03601 0.594699 4.64668C0.270285 4.25735 0.34269 3.84209 0.53231 3.6864C0.72193 3.53071 1.14641 3.53798 1.47082 3.92731Z" stroke="black" stroke-width="0.7"/>
<path d="M7.31103 1.8901C7.54978 1.95749 7.78283 2.30958 7.64421 2.79352C7.5056 3.27746 7.12081 3.45517 6.88206 3.38778C6.6433 3.32039 6.41026 2.9683 6.54887 2.48435C6.68749 2.00041 7.07228 1.82271 7.31103 1.8901Z" stroke="black" stroke-width="0.7"/>
<path d="M3.79095 6.82458L3.78459 6.82828C3.51177 6.9565 3.21221 6.88063 3.13885 6.85809L3.1389 6.85793L3.12816 6.85498C3.04552 6.83229 2.9296 6.79421 2.82362 6.69236C2.80209 6.67097 2.73581 6.60393 2.68364 6.49055L2.68365 6.49055L2.68279 6.48871C2.60408 6.32011 2.59975 6.15118 2.63426 5.81906C2.69793 5.22093 2.72326 4.98929 2.80308 4.77913L2.80309 4.77913L2.80353 4.77794C2.91472 4.48214 3.16136 3.84468 3.80491 3.55407C4.30133 3.33169 4.77821 3.4284 4.95917 3.46876C5.46411 3.58237 5.74491 3.85348 6.43524 4.55437L6.43541 4.55455C6.72671 4.84992 6.81368 4.99911 6.85546 5.16601C6.88196 5.27348 6.94158 5.52684 6.81044 5.76115L6.80954 5.76278C6.73518 5.89724 6.62928 5.96827 6.52416 6.03643C6.451 6.08361 6.20997 6.23208 5.89649 6.22141C5.73161 6.21438 5.62744 6.1728 5.49856 6.12135L5.49326 6.11924C5.49029 6.11805 5.48728 6.11685 5.48423 6.11563C5.35074 6.06226 5.14289 5.97917 4.87528 6.04122L4.87528 6.04121L4.87294 6.04177C4.69575 6.08407 4.56235 6.18862 4.47877 6.2654C4.41844 6.32081 4.3483 6.39848 4.31572 6.43456C4.30969 6.44124 4.30495 6.44649 4.30179 6.44991C4.28695 6.46441 4.27411 6.47564 4.26287 6.48423L4.26287 6.48422L4.26043 6.48611C4.06361 6.63901 3.93743 6.72844 3.86341 6.77807C3.82649 6.80283 3.80312 6.8173 3.79095 6.82458ZM5.88231 6.59052C5.65335 6.581 5.49986 6.51966 5.36815 6.46702C5.22853 6.41122 5.11337 6.36519 4.95872 6.40105C4.81256 6.43595 4.69293 6.56841 4.60903 6.66131C4.59344 6.67857 4.57909 6.69446 4.56602 6.70811L5.88231 6.59052Z" stroke="black" stroke-width="0.7"/>
<path d="M13.3986 7.89363C13.6756 8.03999 13.846 8.51631 13.5686 9.0336C13.2912 9.55088 12.798 9.67653 12.521 9.53017C12.2441 9.38381 12.0737 8.90749 12.3511 8.39021C12.6285 7.87292 13.1217 7.74727 13.3986 7.89363Z" stroke="black" stroke-width="0.7"/>
<path d="M10.6609 6.73909C10.9683 6.80683 11.26 7.22103 11.1324 7.792C11.0047 8.36297 10.5638 8.61574 10.2564 8.54801C9.94904 8.48027 9.65733 8.06607 9.78501 7.4951C9.91269 6.92413 10.3535 6.67136 10.6609 6.73909Z" stroke="black" stroke-width="0.7"/>
<path d="M8.67435 8.75434C8.69098 9.25674 8.37938 9.54273 8.13082 9.55084C7.88226 9.55895 7.55242 9.29388 7.53579 8.79149C7.51916 8.2891 7.83076 8.00311 8.07931 7.995C8.32787 7.98689 8.65771 8.25195 8.67435 8.75434Z" stroke="black" stroke-width="0.7"/>
<path d="M14.5477 10.6877C14.6928 10.883 14.6632 11.3035 14.2524 11.6043C13.8416 11.9052 13.4281 11.8091 13.283 11.6138C13.1378 11.4185 13.1674 10.998 13.5783 10.6972C13.9891 10.3963 14.4025 10.4924 14.5477 10.6877Z" stroke="black" stroke-width="0.7"/>
<path d="M8.03874 11.7663L8.03871 11.7663C8.05871 11.9105 8.1248 12.008 8.18092 12.0876L8.18172 12.0887L8.18172 12.0887C8.22369 12.1487 8.4124 12.3899 8.7069 12.4548L8.71424 12.4557C8.72895 12.4574 8.75693 12.4601 8.80184 12.4629C8.89188 12.4685 9.0474 12.4744 9.29687 12.4733L9.29844 12.4733C9.31647 12.4733 9.3346 12.4723 9.3529 12.4703C9.35585 12.4697 9.36056 12.4689 9.36672 12.4678C9.40986 12.4599 9.52419 12.4391 9.60398 12.4318C9.7167 12.4216 9.88848 12.4191 10.0563 12.4954C10.3072 12.6085 10.4211 12.8019 10.4936 12.925C10.4953 12.928 10.4971 12.9309 10.4988 12.9338L10.5012 12.9379C10.5716 13.0573 10.6279 13.1528 10.7541 13.2576L10.7549 13.2582C10.994 13.4579 11.2768 13.4864 11.3653 13.4938L8.03874 11.7663ZM8.03874 11.7663L8.03806 11.7618C8.03556 11.7452 8.02277 11.6502 8.05222 11.5245L8.05222 11.5245L8.05264 11.5227C8.09404 11.3418 8.19519 11.2045 8.426 10.9646L8.42627 10.9644C8.84332 10.5301 9.00863 10.3609 9.20283 10.241L9.20284 10.241L9.20429 10.2401C9.47109 10.0738 10.0645 9.71902 10.7515 9.88113C11.2811 10.0065 11.5969 10.372 11.7151 10.5136C12.0428 10.9088 12.0989 11.2939 12.2112 12.2666L12.2113 12.267C12.259 12.6768 12.2358 12.8469 12.1652 13.0081C12.1236 13.1032 12.0115 13.3437 11.7619 13.4503L8.03874 11.7663ZM11.7618 13.4503C11.617 13.5121 11.4884 13.5042 11.3654 13.4938L11.7618 13.4503Z" stroke="black" stroke-width="0.7"/>
</svg>
