<svg width="24" height="24" viewBox="0 0 24 24" fill="none" xmlns="http://www.w3.org/2000/svg">
<path d="M4.25928 11.2871V18C4.25928 19.1046 5.15471 20 6.25928 20H8.82408M4.25928 11.2871L10.0813 5.42781C10.8634 4.64073 12.1367 4.64073 12.9187 5.42781L18.7407 11.2871M4.25928 11.2871L2.99999 12.5464M18.7407 11.2871V18C18.7407 19.1046 17.8453 20 16.7407 20H14.1759M18.7407 11.2871L20 12.5464M14.1759 20V15.9802C14.1759 14.8756 13.2805 13.9802 12.1759 13.9802H10.8241C9.71952 13.9802 8.82408 14.8756 8.82408 15.9802V20M14.1759 20H8.82408" stroke="black" stroke-width="1.5" stroke-linecap="round"/>
</svg>
